<svg id="Layer_1" enable-background="new 0 0 512 512" height="512" viewBox="0 0 512 512" width="512" xmlns="http://www.w3.org/2000/svg"><path d="m18.13 248h176.54v264h-176.54z"/><path d="m226.67 248h58.66v264h-58.66z"/><path d="m317.33 248h176.54v264h-176.54z"/><path d="m335.47 136h176.53v80h-176.53z"/><path d="m208.53 136h94.94v80h-94.94z"/><path d="m0 136h176.53v80h-176.53z"/><path d="m256 136c-59.033 0-152-13.288-152-72 0-40.673 23.327-64 64-64 29.356 0 55.888 20.188 78.859 60.005 15.722 27.25 24.085 54.157 24.433 55.29 3.165 10.279-4.536 20.705-15.292 20.705zm-88-104c-23.028 0-32 8.972-32 32 0 22.512 46.411 36.042 96.649 39.255-12.774-29.775-36.715-71.255-64.649-71.255z"/><path d="m256 136c-10.755 0-18.457-10.426-15.292-20.705.348-1.133 8.711-28.04 24.433-55.29 22.971-39.817 49.503-60.005 78.859-60.005 40.673 0 64 23.327 64 64 0 58.758-93.098 72-152 72zm88-104c-28.035 0-51.947 41.485-64.682 71.257 50.25-3.209 96.682-16.741 96.682-39.257 0-23.028-8.972-32-32-32z"/></svg>